<?xml version="1.0" encoding="UTF-8"?><svg id="Layer_1" xmlns="http://www.w3.org/2000/svg" viewBox="0 0 2192 1698.15"><defs><style>.cls-1{fill:#0093dd;}.cls-2{fill:#68b92e;}.cls-3{fill:#eb891b;}</style></defs><g id="_0093ddff"><path class="cls-1" d="M425.65,0h292.41c9.48,2.02,17.5,9.61,19.61,19.12,2.4,8.81-.71,17.69-2.6,26.26-17.5,75.37-35.2,150.7-52.57,226.1-1.97,1.1-3.94,2.18-5.95,3.18l-1.21,.52c-.25,.11-.76,.33-1,.44-3.49,1.52-6.95,3.06-10.43,4.6-.57,.27-1.71,.83-2.3,1.11l-.71,.32c-.13,.06-.38,.17-.51,.22-3.6,1.51-7.21,3.02-10.75,4.67-.1,.05-.3,.14-.4,.19l-2.7,1.25c-.11,.06-.37,.19-.49,.24l-2.81,1.33c-.57,.32-1.71,.94-2.29,1.25l-.73,.33c-.11,.06-.37,.17-.48,.22-4.7,1.97-9.27,4.14-13.88,6.27-.13,.06-.38,.17-.51,.24l-.7,.35c-.59,.29-1.75,.86-2.32,1.14l-2.87,1.33c-.13,.05-.37,.17-.49,.22l-2.72,1.29c-.13,.06-.4,.19-.54,.25l-2.62,1.25c-.13,.06-.37,.17-.49,.24l-2.67,1.25c-.13,.06-.4,.19-.54,.25l-1.91,.87c-.83,.43-2.49,1.3-3.33,1.73-1.67,.71-3.32,1.44-4.95,2.21-.24,.13-.73,.35-.97,.48-1.91,.91-3.81,1.83-5.7,2.76-.11,.05-.3,.14-.41,.21-3,1.62-6.05,3.13-9.13,4.57-.13,.06-.37,.19-.48,.24l-.7,.37c-.56,.3-1.65,.92-2.19,1.24-3.87,1.87-7.7,3.83-11.54,5.72-2.05,.19-4.32,.76-5.26,2.81-6.75,3.11-13.31,6.62-19.86,10.11-.54,.29-1.6,.89-2.13,1.19l-.65,.4c-.14,.1-.44,.27-.59,.35l-.67,.4c-.59,.27-1.75,.79-2.33,1.05l-2.78,1.46c-.11,.06-.37,.19-.49,.27l-2.56,1.37c-.11,.06-.32,.17-.43,.24-5.64,3.03-11.27,6.03-16.91,9.07-.25,.13-.75,.4-1,.52-7.53,3.95-14.88,8.19-22.31,12.29-10.88,5.72-21.47,11.97-31.93,18.35,10.83-4.4,21.13-10.05,31.45-15.53,11.29-5.83,22.82-11.18,34.23-16.77,.1-.06,.32-.16,.43-.22l2.7-1.32c.14-.06,.43-.19,.57-.27l2.68-1.29c.11-.06,.37-.17,.49-.24l2.64-1.25c.11-.05,.33-.16,.44-.21,5.56-2.6,11.16-5.13,16.72-7.73,.25-.11,.75-.35,.98-.46,5.59-2.57,11.18-5.16,16.78-7.72,.11-.05,.32-.14,.43-.19l2.68-1.21c.13-.06,.38-.17,.51-.22l1.98-.87c.86-.41,2.56-1.22,3.4-1.62,1.73-.7,3.43-1.41,5.14-2.14,.16-.08,.48-.22,.64-.29,1.71-.76,3.45-1.52,5.18-2.25,.83-.41,2.48-1.22,3.3-1.62,5.62-2.14,11.04-4.78,16.59-7.1,.54-.29,1.65-.87,2.21-1.16l.71-.29c.11-.06,.37-.16,.49-.21,1.03-.4,3.1-1.17,4.13-1.57,.14-.05,.41-.16,.56-.22,1.76-.73,3.54-1.48,5.32-2.22,.86-.38,2.54-1.16,3.38-1.54,2.64-.97,5.22-2.03,7.83-3.1,.84-.4,2.54-1.21,3.4-1.6l1.94-.67c.11-.05,.33-.13,.46-.16l1.97-.73c.86-.44,2.54-1.32,3.38-1.76l2.25-.62c.57-.27,1.71-.83,2.3-1.1l.7-.37c.14-.08,.41-.22,.56-.3l.57-.3c1.22-.43,3.67-1.29,4.89-1.71l2-.73c.11-.05,.37-.14,.49-.19l2.06-.73c.81-.44,2.45-1.3,3.27-1.75l1.41,.06c.81-.43,2.45-1.29,3.25-1.71,1.54-.51,3.08-1.03,4.64-1.54,.86-.41,2.56-1.22,3.4-1.64l2.54-.89c.14,1.37,.05,2.72-.27,4.05-13.62,58.14-27.12,116.34-40.68,174.5-.6,6.46-2.45,12.7-3.75,19.05-1.95,9.4,.44,20.09,7.75,26.66,5.73,5.45,13.88,7.26,21.58,7.07,111.16-.02,222.32,.02,333.5-.02,6.59,.02,13.51-.37,19.7,2.37,8.02,3.29,13.85,10.99,15.18,19.53,1.76,9.76-2.29,19.23-4.06,28.69-36.49,156.67-72.96,313.33-109.46,470-3.48,16.75-16.85,30.88-33.28,35.5-7.53,2.1-15.42,1.4-23.13,1.51-143.65,.05-287.28-.1-430.91,.08-.41-4.75-.17-9.51-.22-14.26,39.47-8.83,79.09-22.13,111.37-47.25,25.98-19.85,45.43-48.28,53.54-80.02,26.58-114.37,53.29-228.72,79.87-343.09,2.57-10.88-1.29-23.61-11.08-29.63-7.3-4.86-16.39-4.48-24.79-4.4-79.88,0-159.78,.03-239.66,0-2.59,.17-5.35-.51-7.8,.44-45.44,39.17-88.63,81.07-127.63,126.71-38.81,44.9-73.5,93.58-101.16,146.16-32.39,61.77-54.99,130.12-55.84,200.36-1.27,67.05,20.07,134.22,60.02,188.11,35.88,49.06,84.84,87.28,137.85,116.34,57.35,31.03,119.47,52.7,182.91,67.37-.14,1.22-.41,3.64-.54,4.86-5.86,24.06-11.27,48.21-16.94,72.31-41.65-5.62-82.88-14.29-123.43-25.26-56.37-15.66-111.54-36.66-162.19-66.15-51.84-30.09-99.17-69.67-132.69-119.77-38.28-56.26-56.14-125.58-51.22-193.35,4.38-68.54,28.63-134.39,61.61-194.14,30.58-55.18,68.75-105.87,110.89-152.73,56.97-63.45,121.48-119.74,189.33-171.23-19.9-.11-39.81,.1-59.7-.1-9.72-.02-19.53-5.32-23.77-14.24-3.97-7.68-3.38-16.74-1.1-24.82,37.5-160.87,74.91-321.8,112.45-482.67,3.92-17.1,18.28-30.79,35.14-35.03Z"/><path class="cls-1" d="M1860.01,1108.09c8.49-5.03,16.34-11.31,25.31-15.5-27.83,21.12-57.16,40.27-86.46,59.3-157.29,100.22-328.56,177.61-505.78,235.2-154.87,50.02-314.99,84.69-477.19,99.19,.21-1.27,.62-3.79,.81-5.05,4.08-16.56,7.76-33.2,11.7-49.78,92.35-3.73,184.37-14.43,275.23-31.42,139.11-25.96,275.53-65.78,407.33-117.23,121.28-47.59,238.68-105.4,349.04-174.72Z"/></g><g id="_eb891bff"><path class="cls-3" d="M1246.58,0h448.54c-.05,4.54,.19,9.08-.27,13.61-25.06,5.51-49.75,13.24-72.8,24.59-22.86,10.99-43.87,26.37-59.99,46.08,92.08,2.27,184.33,12.37,273.56,35.71,66.19,17.51,131.02,42.31,189.06,79.04,50.63,31.99,96,73.99,126.31,126.05,23.34,39.38,36.93,84.14,41.01,129.66v49.76c-4.65,62.48-25.29,122.83-54.14,178.13-29.95,57.46-68.51,110.05-111.18,158.67-80.6,91.09-175.75,168.35-276.72,235.76-2.22,1.49-4.4,3.14-7.07,3.64,.6-1.1,1.43-2.02,2.45-2.75,72.53-54.72,140.77-115.53,200.51-184.1,42.12-48.68,80.09-101.32,109.46-158.72,29.45-57.64,50.24-120.7,53.05-185.72,1.86-42.58-4.41-85.68-19.74-125.51-20.7-55.37-58.24-103.41-103.73-140.69-48.68-40.19-105.68-69.16-164.72-90.82-91.57-33.12-188.49-49.19-285.39-55.78-19.8,84.93-39.55,169.88-59.35,254.82-7.24,31.91-15.42,63.65-21.34,95.82-1.3,10.35,3.33,21.63,12.7,26.79,7.02,4.24,15.5,3.81,23.4,3.78,111.13-.02,222.26-.02,333.39,0,7.95-.21,16.35,2.16,21.9,8.15,7.21,7.38,8.62,18.78,5.97,28.44-37.22,159.84-74.45,319.69-111.67,479.53-2.95,22.51-23.15,42.08-46.33,41.47-91.55,0-183.09,.03-274.62-.02-8.08,.14-16.53-2.65-21.9-8.91-6.46-7.19-7.8-17.72-5.49-26.83,34.84-149.59,69.7-299.16,104.52-448.74,2.57-10.91-1.3-23.69-11.15-29.71-7.78-5.16-17.45-4.35-26.31-4.35-110.64,0-221.27,0-331.91-.02-7.92,.22-16.26-2-21.86-7.86-7.27-7.18-8.97-18.4-6.46-28.01,28.63-122.96,57.3-245.9,85.9-368.88-173.1,24.88-343.03,70.83-505.89,134.41l-2.54,.89c-.84,.41-2.54,1.22-3.4,1.64-1.56,.51-3.1,1.03-4.64,1.54l-1.4-.3c-.48,.51-1.4,1.51-1.86,2.02l-1.41-.06c-.83,.44-2.46,1.3-3.27,1.75l-2.06,.73c-.13,.05-.38,.14-.49,.19l-2,.73c-1.22,.43-3.67,1.29-4.89,1.71l-.57,.3c-.14,.08-.41,.22-.56,.3l-.7,.37c-.59,.27-1.73,.83-2.3,1.1l-2.25,.62c-.84,.44-2.52,1.32-3.38,1.76l-1.97,.73c-.13,.03-.35,.11-.46,.16l-1.94,.67c-.86,.4-2.56,1.21-3.4,1.6-2.6,1.06-5.19,2.13-7.83,3.1l-1.38-.35c-.49,.46-1.49,1.41-2,1.89-1.78,.75-3.56,1.49-5.32,2.22-.14,.06-.41,.17-.56,.22-1.03,.4-3.1,1.17-4.13,1.57-.13,.05-.38,.14-.49,.21l-.71,.29c-.56,.29-1.67,.87-2.21,1.16-5.56,2.32-10.97,4.95-16.59,7.1l-1.38-.32c-.49,.48-1.44,1.44-1.92,1.94-1.73,.73-3.46,1.49-5.18,2.25-.16,.06-.48,.21-.64,.29-1.71,.73-3.41,1.44-5.14,2.14l-1.38-.32c-.51,.48-1.51,1.44-2.02,1.94l-1.98,.87c-.13,.05-.38,.16-.51,.22l-2.68,1.21c-.11,.05-.32,.14-.43,.19-5.6,2.56-11.19,5.14-16.78,7.72-.24,.11-.73,.35-.98,.46-5.56,2.6-11.16,5.13-16.72,7.73-.11,.05-.33,.16-.44,.21l-2.64,1.25c-.13,.06-.38,.17-.49,.24l-2.68,1.29c-.14,.08-.43,.21-.57,.27l-2.7,1.32c-.11,.06-.33,.16-.43,.22-11.42,5.59-22.94,10.94-34.23,16.77l-2.48,.11c.73-.73,2.21-2.19,2.95-2.94,7.43-4.1,14.78-8.34,22.31-12.29,.25-.13,.75-.4,1-.52,5.64-3.03,11.27-6.03,16.91-9.07,.11-.06,.32-.17,.43-.24l2.56-1.37c.13-.08,.38-.21,.49-.27l2.78-1.46c.59-.25,1.75-.78,2.33-1.05l.67-.4c.14-.08,.44-.25,.59-.35l.65-.4c.52-.3,1.59-.91,2.13-1.19,6.56-3.49,13.12-7,19.86-10.11,2.38,1.71,4.76-.43,5.26-2.81,3.84-1.89,7.67-3.84,11.54-5.72,.54-.32,1.64-.94,2.19-1.24l.7-.37c.11-.05,.35-.17,.48-.24,3.08-1.44,6.13-2.95,9.13-4.57,.11-.06,.3-.16,.41-.21,1.89-.94,3.79-1.86,5.7-2.76,.24-.13,.73-.35,.97-.48,1.64-.76,3.29-1.49,4.95-2.21l1.4,.27c.49-.51,1.46-1.49,1.94-2l1.91-.87c.14-.06,.41-.19,.54-.25l2.67-1.25c.13-.06,.37-.17,.49-.24l2.62-1.25c.14-.06,.41-.19,.54-.25l2.72-1.29c.13-.05,.37-.17,.49-.22l2.87-1.33c.57-.29,1.73-.86,2.32-1.14l.7-.35c.13-.06,.38-.17,.51-.24,4.6-2.13,9.18-4.3,13.88-6.27,.11-.05,.37-.16,.48-.22l.73-.33c.57-.32,1.71-.94,2.29-1.25l2.81-1.33c.13-.05,.38-.17,.49-.24l2.7-1.25c.1-.05,.3-.14,.4-.19,3.54-1.65,7.15-3.16,10.75-4.67,.13-.05,.38-.16,.51-.22l.71-.32c.59-.29,1.73-.84,2.3-1.11,3.48-1.54,6.94-3.08,10.43-4.6,.24-.11,.75-.33,1-.44l1.21-.52c165.29-72.32,338.66-126.42,516.16-159.06,6.26-26.87,12.48-53.73,18.78-80.58,3.92-17.08,18.26-30.76,35.11-35.01Z"/></g><g id="_68b92eff"><path class="cls-2" d="M674.33,275.62c.24-.11,.75-.33,1-.44-.25,.11-.76,.33-1,.44Z"/><path class="cls-2" d="M661.59,281.34c.59-.29,1.73-.84,2.3-1.11-.57,.27-1.71,.83-2.3,1.11Z"/><path class="cls-2" d="M660.37,281.88c.13-.05,.38-.16,.51-.22-.13,.06-.38,.17-.51,.22Z"/><path class="cls-2" d="M649.22,286.74c.1-.05,.3-.14,.4-.19-.1,.05-.3,.14-.4,.19Z"/><path class="cls-2" d="M646.03,288.23c.13-.05,.38-.17,.49-.24-.11,.06-.37,.19-.49,.24Z"/><path class="cls-2" d="M672.34,289.01c.86-.41,2.56-1.22,3.4-1.64-.84,.41-2.54,1.22-3.4,1.64Z"/><path class="cls-2" d="M640.93,290.82c.57-.32,1.71-.94,2.29-1.25-.57,.32-1.71,.94-2.29,1.25Z"/><path class="cls-2" d="M639.73,291.38c.11-.05,.37-.16,.48-.22-.11,.06-.37,.17-.48,.22Z"/><path class="cls-2" d="M664.45,292.26c.46-.51,1.38-1.51,1.86-2.02l1.4,.3c-.81,.43-2.45,1.29-3.25,1.71Z"/><path class="cls-2" d="M659.77,293.95c.81-.44,2.45-1.3,3.27-1.75-.83,.44-2.46,1.3-3.27,1.75Z"/><path class="cls-2" d="M657.21,294.87c.11-.05,.37-.14,.49-.19-.13,.05-.38,.14-.49,.19Z"/><path class="cls-2" d="M650.32,297.31c1.22-.43,3.67-1.29,4.89-1.71-1.22,.43-3.67,1.29-4.89,1.71Z"/><path class="cls-2" d="M625.34,297.89c.13-.06,.38-.17,.51-.24-.13,.06-.38,.17-.51,.24Z"/><path class="cls-2" d="M649.19,297.92c.14-.08,.41-.22,.56-.3-.14,.08-.41,.22-.56,.3Z"/><path class="cls-2" d="M622.33,299.38c.57-.29,1.73-.86,2.32-1.14-.59,.29-1.75,.86-2.32,1.14Z"/><path class="cls-2" d="M646.19,299.38c.57-.27,1.71-.83,2.3-1.1-.59,.27-1.73,.83-2.3,1.1Z"/><path class="cls-2" d="M618.96,300.93c.13-.05,.37-.17,.49-.22-.13,.05-.37,.17-.49,.22Z"/><path class="cls-2" d="M640.55,301.76c.86-.44,2.54-1.32,3.38-1.76-.84,.44-2.52,1.32-3.38,1.76Z"/><path class="cls-2" d="M615.7,302.47c.14-.06,.41-.19,.54-.25-.13,.06-.4,.19-.54,.25Z"/><path class="cls-2" d="M638.12,302.65c.11-.05,.33-.13,.46-.16-.13,.03-.35,.11-.46,.16Z"/><path class="cls-2" d="M612.59,303.97c.13-.06,.37-.17,.49-.24-.13,.06-.37,.17-.49,.24Z"/><path class="cls-2" d="M632.79,304.92c.84-.4,2.54-1.21,3.4-1.6-.86,.4-2.56,1.21-3.4,1.6Z"/><path class="cls-2" d="M609.39,305.48c.14-.06,.41-.19,.54-.25-.13,.06-.4,.19-.54,.25Z"/><path class="cls-2" d="M604.15,308.08c.84-.43,2.51-1.3,3.33-1.73-.48,.51-1.44,1.49-1.94,2l-1.4-.27Z"/><path class="cls-2" d="M621.58,309.56c.51-.48,1.51-1.43,2-1.89l1.38,.35c-.84,.38-2.52,1.16-3.38,1.54Z"/><path class="cls-2" d="M598.22,310.76c.24-.13,.73-.35,.97-.48-.24,.13-.73,.35-.97,.48Z"/><path class="cls-2" d="M615.7,312c.14-.05,.41-.16,.56-.22-.14,.06-.41,.17-.56,.22Z"/><path class="cls-2" d="M592.11,313.73c.11-.06,.3-.16,.41-.21-.11,.05-.3,.14-.41,.21Z"/><path class="cls-2" d="M611.08,313.78c.11-.06,.37-.16,.49-.21-.13,.05-.38,.14-.49,.21Z"/><path class="cls-2" d="M608.16,315.22c.54-.29,1.65-.87,2.21-1.16-.56,.29-1.67,.87-2.21,1.16Z"/><path class="cls-2" d="M582.5,318.54c.11-.05,.35-.17,.48-.24-.13,.06-.37,.19-.48,.24Z"/><path class="cls-2" d="M579.61,320.15c.54-.32,1.64-.94,2.19-1.24-.56,.3-1.65,.92-2.19,1.24Z"/><path class="cls-2" d="M588.27,323.94c.48-.49,1.43-1.46,1.92-1.94l1.38,.32c-.83,.4-2.48,1.21-3.3,1.62Z"/><path class="cls-2" d="M562.82,328.67c.94-2.05,3.21-2.62,5.26-2.81-.49,2.38-2.87,4.53-5.26,2.81Z"/><path class="cls-2" d="M582.46,326.48c.16-.08,.48-.22,.64-.29-.16,.06-.48,.21-.64,.29Z"/><path class="cls-2" d="M573.91,330.24c.51-.49,1.51-1.46,2.02-1.94l1.38,.32c-.84,.4-2.54,1.21-3.4,1.62Z"/><path class="cls-2" d="M571.42,331.34c.13-.06,.38-.17,.51-.22-.13,.05-.38,.16-.51,.22Z"/><path class="cls-2" d="M568.31,332.74c.11-.05,.32-.14,.43-.19-.11,.05-.32,.14-.43,.19Z"/><path class="cls-2" d="M540.82,339.98c.52-.3,1.59-.91,2.13-1.19-.54,.29-1.6,.89-2.13,1.19Z"/><path class="cls-2" d="M539.59,340.72c.14-.08,.44-.25,.59-.35-.14,.1-.44,.27-.59,.35Z"/><path class="cls-2" d="M550.54,340.91c.25-.11,.75-.35,.98-.46-.24,.11-.73,.35-.98,.46Z"/><path class="cls-2" d="M536.58,342.17c.59-.25,1.75-.78,2.33-1.05-.59,.27-1.75,.79-2.33,1.05Z"/><path class="cls-2" d="M533.31,343.9c.13-.08,.38-.21,.49-.27-.11,.06-.37,.19-.49,.27Z"/><path class="cls-2" d="M530.33,345.5c.11-.06,.32-.17,.43-.24-.11,.06-.32,.17-.43,.24Z"/><path class="cls-2" d="M533.38,348.85c.11-.05,.33-.16,.44-.21-.11,.05-.33,.16-.44,.21Z"/><path class="cls-2" d="M530.25,350.35c.11-.06,.37-.17,.49-.24-.13,.06-.38,.17-.49,.24Z"/><path class="cls-2" d="M526.99,351.9c.14-.06,.43-.19,.57-.27-.14,.08-.43,.21-.57,.27Z"/><path class="cls-2" d="M523.87,353.44c.1-.06,.32-.16,.43-.22-.11,.06-.33,.16-.43,.22Z"/><path class="cls-2" d="M512.42,355.09c.25-.13,.75-.4,1-.52-.25,.13-.75,.4-1,.52Z"/><path class="cls-2" d="M458.18,385.74c10.46-6.38,21.05-12.64,31.93-18.35-.75,.75-2.22,2.21-2.95,2.94l2.48-.11c-10.32,5.48-20.63,11.13-31.45,15.53Z"/><path class="cls-2" d="M1071.94,658.87c4.24-20.59,23.82-37.33,45.08-36.92,91.54,0,183.06-.02,274.59,.02,9.59-.35,19.66,3.91,24.66,12.37,4.54,7.32,4.8,16.5,2.65,24.64-37.63,161.38-75.17,322.8-112.8,484.18-4.41,20.23-23.66,36.65-44.6,36.39-108.51,.03-217.02,0-325.53,.02-9.3,.13-18.99-.87-27.83,2.67-14.1,5.4-25.63,17.7-29.22,32.49-16.89,72.23-33.6,144.5-50.54,216.73-3.94,16.58-7.62,33.22-11.7,49.78-13.37,58.95-27.39,117.8-40.98,176.72-3.25,21.45-22.44,39.95-44.51,40.14-92.04,.1-184.09,.03-276.13,.03-8.11,.14-16.59-2.68-21.96-8.99-6.45-7.22-7.75-17.78-5.4-26.91,14.21-60.92,28.29-121.86,42.62-182.75,5.67-24.1,11.08-48.25,16.94-72.31,17.43-76.48,35.53-152.81,53.22-229.23,4.08-20.55,23.28-37.47,44.47-37.39,112.78-.06,225.58,0,338.36-.03,16.45,.32,31.98-9.76,40.01-23.83,3.67-6.21,5.08-13.37,6.68-20.31,33.98-145.82,67.93-291.66,101.9-437.5Z"/></g></svg>