<?xml version="1.0" encoding="UTF-8"?><svg id="Layer_1" xmlns="http://www.w3.org/2000/svg" viewBox="0 0 2192 626.8"><defs><style>.cls-1{fill:#3b81cb;}.cls-2{fill:#1d3054;}</style></defs><g id="g8"><g id="g10"><path id="path12" class="cls-2" d="M1132.29,298.81c0,66.56-22.56,96.25-73.2,96.25s-73.19-29.69-73.19-96.25V115.56h-67.43v190.23c0,98.35,49.94,152.5,140.62,152.5s140.63-54.15,140.63-152.5V115.56h-67.43v183.24"/><path id="path14" class="cls-2" d="M1416.08,105.78c-45.32,0-85.27,21.7-113.02,61.23v-51.45h-67.43v478.83h67.43v-195.35c27.25,37.74,67.18,59.25,110.23,59.25,48.09,0,88.82-18.71,117.74-54.1,26.46-32.39,41.04-76.76,41.04-124.95,0-45.61-14.92-88.44-42.01-120.6-28.73-34.08-69.21-52.86-113.98-52.86m92.06,175.56c0,80.48-52.21,116.52-103.94,116.52-66.4,0-101.14-58.62-101.14-116.52,0-75.58,50.88-115.12,101.14-115.12,61.21,0,103.94,47.34,103.94,115.12"/><path id="path16" class="cls-2" d="M582.81,123.16c-.62-.45-1.1-.8-1.35-.96-16.65-10.59-35.45-16.42-52.94-16.42-39.96,0-72.2,21.4-89.26,58.94v-49.16h-67.43V447.12h67.43v-162.99c0-52.94,8.4-113.72,73.89-113.72,10.31,0,18.99,1.87,26.59,5.74l43.06-52.99"/><path id="path18" class="cls-2" d="M164.78,397.85c-66.4,0-101.14-58.62-101.14-116.52,0-75.58,50.88-115.12,101.14-115.12,61.19,0,103.94,47.34,103.94,115.12,0,80.48-52.2,116.52-103.94,116.52M269.01,115.56v52.72c-27.41-40.35-67.36-62.5-113.02-62.5s-85.25,18.78-113.98,52.86C14.93,190.8,0,233.64,0,279.24c0,48.19,14.57,92.56,41.04,124.95,28.93,35.39,69.64,54.1,117.75,54.1,43.06,0,82.98-21.53,110.22-59.26v49.42c0,58.3-10.86,117.92-91.36,117.92-58.93,0-95.55-34.47-95.55-89.96v-2.27H14.64l.04,2.29c1.35,89.94,65.72,150.37,160.18,150.37,143.21,0,161.59-104.63,161.59-195.81V115.56h-67.44"/><path id="path20" class="cls-1" d="M2176.29,251.46c-32.08,13.46-62.72,20.87-86.21,20.87-18.97,0-32.23-4.68-39.41-13.93-7.85-10.13-8.98-26.43-3.26-48.75l18.61-84.46c9.49-40.93,5.64-72.55-11.42-94.03-14.98-18.86-39.05-28.41-71.57-28.41-34.42,0-66.5,12.27-97.74,37.43-12.84-24.85-37.58-37.43-73.69-37.43-29.84,0-58.99,10.59-86.75,31.48-11.3-20.26-40.78-34.24-75.58-34.24-16.84,0-34.01,3.12-51,9.32l-4.73,1.73-13.24,63.44,15.9-6.63c22.85-9.5,41.06-8.91,49.48,1.68,6.02,7.56,7.42,20.08,3.97,35.15l-44.14,182.22h74.18l29.41-126.94c16.67-62.8,42.98-92.06,82.8-92.06,10.52,0,19.13,3.57,24.26,10.03,6.37,8,7.07,23.76,2.04,45.58l-37.88,163.39h74.07l34.8-150.2c9.6-40.5,40.98-68.8,76.31-68.8,10.97,0,19.53,3.52,24.81,10.15,6.36,8,7.04,23.71,2,45.48l-21.3,92.81c-8.13,37.62-3.05,68.07,15.03,90.49,18.4,22.79,49.86,35.33,88.62,35.33,32.11,0,67.38-8.61,99.25-24.25l4.04-1.98,14.03-71.08-15.71,6.6"/><path id="path22" class="cls-2" d="M767.35,394.48c-12.8,7.31-28.05,11.01-45.33,11.01s-32.55-3.71-45.33-11.01c-12.73-7.27-23.34-16.96-31.53-28.8-8.14-11.75-14.2-25.14-18.02-39.78-3.81-14.51-5.74-29.61-5.74-44.88s1.93-29.8,5.73-44.54c3.83-14.88,9.9-28.27,18.05-39.81,8.18-11.6,18.79-21.16,31.51-28.43,12.8-7.32,28.05-11.03,45.33-11.03s32.51,3.71,45.33,11.03c12.73,7.28,23.33,16.85,31.51,28.44,8.13,11.52,14.2,24.92,18.05,39.81,3.8,14.83,5.74,29.82,5.74,44.54s-1.94,30.28-5.74,44.88c-3.84,14.66-9.91,28.05-18.03,39.79-8.17,11.82-18.78,21.51-31.52,28.79m113.02-184.64c-7.56-21.58-18.71-40.38-33.13-55.87-14.42-15.5-32.34-27.84-53.24-36.68-20.96-8.85-45.18-13.33-71.99-13.33s-51.04,4.48-71.99,13.33c-20.92,8.84-38.83,21.18-53.24,36.68-14.43,15.48-25.57,34.28-33.13,55.87-7.58,21.66-11.42,45.6-11.42,71.18s3.84,50.19,11.42,71.84c7.55,21.58,18.69,40.37,33.12,55.86,14.41,15.52,32.33,27.85,53.24,36.69,20.95,8.84,45.17,13.33,71.99,13.33s51.03-4.49,71.99-13.33c20.89-8.83,38.81-21.16,53.25-36.69,14.41-15.49,25.56-34.29,33.12-55.86,7.58-21.67,11.41-45.84,11.41-71.84s-3.84-49.49-11.41-71.18"/></g></g></svg>