<?xml version="1.0" encoding="UTF-8"?><svg id="Layer_1" xmlns="http://www.w3.org/2000/svg" viewBox="0 0 2192 612.51"><defs><style>.cls-1{fill:#194175;}.cls-2{fill:#8cc53e;}</style></defs><path class="cls-1" d="M1113.97,612.51c-3.22-1.39-6.68-.96-10.03-1.23-23.38-1.92-46.29-6.13-68.67-13.24-2.85-.9-3.88-2.09-3.85-5.22,.19-16.93,.15-33.87,.03-50.8-.02-2.93,.62-3.17,3.23-2.18,28.91,11.06,59.01,15.93,89.82,17.01,12.22,.43,24.45,.89,36.4-2.43,10.32-2.87,18.86-8.12,21.06-19.49,2.83-14.62-1.23-30.16-20.36-33.44-3.39-.58-6.87-.79-10.32-.81-19.02-.11-38.05,.08-57.07-.23-10.87-.17-21.51-2.21-31.75-6.02-19.52-7.27-32.6-20.86-38.95-40.58-6.19-19.23-7.11-38.96-2.75-58.65,6.04-27.28,24.11-43.96,49.48-53.59,18.51-7.02,37.88-9.58,57.52-10.35,34.67-1.36,68.77,2.24,102.06,12.37,3.18,.97,7.2,1.31,9.17,3.46,1.92,2.09,.55,6.18,.56,9.38,.06,14.98-.03,29.95,.08,44.93,.02,2.68-.36,3.38-3.16,2.3-34.44-13.33-70.23-18.44-107.01-17.08-10.5,.39-20.91,1.78-30.64,6.14-15.92,7.13-21.18,25.74-10.98,39.45,5.97,8.02,14.89,10.13,24.23,10.28,17.64,.29,35.28,.1,52.91,.31,13.53,.16,26.85,1.9,39.73,6.34,26.35,9.07,41.35,27.75,46.16,54.81,2.91,16.37,2.83,32.79-1.64,48.94-6.41,23.17-21.67,38.47-43.4,47.81-15.96,6.86-32.83,9.64-50,11.1-1.04,.09-2.33-.61-3.12,.69h-38.75Z"/><path class="cls-1" d="M0,333.94c1.02-.11,2.04-.31,3.05-.31,21.22-.02,42.43,.03,63.65-.08,2.58-.01,3.24,.61,3.24,3.22-.07,89.97-.06,179.95-.08,269.92,0,1.41,.78,3.24-2.07,3.22-22.6-.12-45.2-.12-67.79-.16,0-91.94,0-183.87,0-275.81Z"/><path class="cls-2" d="M0,233.7c22.23,0,44.45,.04,66.68-.06,2.54-.01,3.29,.57,3.27,3.2-.13,16.34-.13,32.67,0,49.01,.02,2.64-.73,3.22-3.27,3.2-22.23-.1-44.45-.06-66.68-.06v-55.3Z"/><path class="cls-2" d="M1486.91,298.21c0-8.4,.12-16.8-.07-25.2-.06-2.51,1.48-2.7,3.08-3.29,19.01-7.09,32.26-19.83,37.7-39.63,6.1-22.21-3.28-46.11-23.19-59.81-13.39-9.21-28.26-13.18-44.5-11.41-2.12,.23-3.24-.29-3.77-2.32-.26-.99-.68-1.96-1.17-2.87-4.29-8.02-7-16.16-2.09-24.94,7.52-33.51-13.58-65.85-47.28-72.49-24.16-4.76-49.86,7.26-62.28,29.06-.66,1.16-.77,3.35-2.87,2.83-2.56-.64-5.49,.38-7.32-3.17-18.25-35.39-64.15-43.16-92.3-15.26-17.07,16.92-21.67,37.64-14.97,60.73,.68,2.33,.79,4.32-.11,6.61-2.01,5.14-3.84,10.35-5.54,15.6-.77,2.36-1.76,3.06-4.42,2.7-32.86-4.43-62.5,16.59-68.87,46.69-3.81,18.03,2.84,32.47,14.8,45.21,8.48,9.02,18.55,15.83,29.99,20.54,2.24,.92,3.09,2.1,3.16,4.55,.4,12.42,.88,24.84,1.62,37.24,.18,3-.57,3.21-3.12,2.61-21.21-5.01-40.11-14.74-57.34-27.86-11.06-8.42-20.76-18.2-28.89-29.52-18.9-26.3-20.46-54.13-6.47-82.77,14.26-29.19,38.13-46.59,69.63-53.77,2.85-.65,4.18-1.22,3.7-4.77-7.1-53.55,28.26-103.8,80.34-112.13,31.54-5.05,58.97,4,82.18,25.81,1.87,1.75,2.73,1.77,4.61,.07,20.19-18.25,44-27.54,71.14-25.48,38.83,2.95,66.19,23.26,82.18,58.53,8.07,17.82,10.16,36.7,7.07,56.05-.43,2.71,.2,3.61,2.98,4.36,38.86,10.36,65.03,34.08,75.2,73.5,7.06,27.33,.82,52.04-17.82,73.33-19.22,21.96-43.58,35.34-71.8,42.11-2.98,.72-4.35,.33-3.95-3.15,.31-2.73,.06-5.52,.06-8.28,.23,0,.46,0,.69,0Z"/><path class="cls-1" d="M2098.32,496.27c-29.28,0-58.57,.08-87.85-.1-3.6-.02-4.08,1.16-3.86,4.24,1.53,21.73,12.28,36.82,32.35,45.33,11.26,4.78,23.11,7.11,35.2,7.94,33.05,2.27,65.8-.76,98.32-6.58,2.95-.53,3.66-.06,3.63,2.97-.14,16.12-.17,32.25,.03,48.37,.04,2.99-.98,3.84-3.63,4.34-18.37,3.47-36.89,5.47-55.55,6.34-17.27,.8-34.54,1.23-51.8-.09-22.79-1.74-44.91-6.24-65.44-16.73-30.04-15.35-48.26-40.11-56.82-72.3-6.56-24.65-7.41-49.73-5.05-75.01,1.43-15.42,4.54-30.44,10.39-44.85,11.84-29.2,32.75-49.03,62.71-58.42,36.08-11.31,72.7-11.56,108.86-.58,36.57,11.12,58.06,36.92,67.26,73.45,3.36,13.33,5.1,26.87,4.93,40.65-.15,12.43,.29,24.86-1.39,37.24-.36,2.65-.88,3.88-4.09,3.86-29.4-.16-58.8-.1-88.19-.1Zm-32.98-48.6c18.55,0,37.11-.04,55.66,.05,2.46,.01,3.42-.48,3.34-3.2-.16-5.27-.57-10.5-1.59-15.65-3.46-17.43-12.54-30.29-29.98-36.22-11.97-4.07-24.21-4.88-36.7-3.49-19.25,2.15-33.8,11.03-42.28,28.9-4.01,8.45-5.74,17.48-7.21,26.59-.38,2.33,.69,3.09,3.11,3.08,18.55-.1,37.11-.05,55.66-.05Z"/><path class="cls-1" d="M885.23,496.27c-29.4,0-58.8,.04-88.2-.07-2.86-.01-3.6,.61-3.5,3.55,.78,22.82,13.77,39.76,36.82,47.79,14.53,5.06,29.6,6.7,44.85,6.88,28.52,.33,56.82-2.15,84.87-7.42,2.13-.4,3.03-.12,3.01,2.42-.12,16.59-.16,33.17,.03,49.76,.03,3.12-1.77,3.19-3.78,3.58-18.35,3.56-36.88,5.53-55.54,6.38-19.81,.9-39.61,1.38-59.37-.79-24.41-2.67-47.77-8.7-68.61-22.28-23.81-15.51-38.6-37.66-45.64-64.78-9.56-36.82-9.52-73.85,1.23-110.43,11.31-38.48,37.16-62.49,76.02-71.98,31.41-7.66,63.09-7.71,94.36,.74,40.41,10.91,63.89,38.19,73,78.39,5.61,24.75,5.42,49.77,2.64,74.85-.29,2.63-1.12,3.51-3.98,3.49-29.4-.14-58.8-.09-88.2-.09Zm-32.79-48.6c18.55,0,37.1-.06,55.65,.06,2.64,.02,3.34-.7,3.2-3.27-.28-5.06-.55-10.11-1.49-15.09-3.69-19.6-14.46-32.94-34.21-38.18-13.03-3.46-26.2-3.68-39.34-1.01-12.77,2.59-23.37,8.88-30.91,19.74-7.44,10.71-10.24,22.95-11.7,35.64-.29,2.56,1.37,2.1,2.81,2.1,18.67,0,37.33,0,56,0Z"/><path class="cls-1" d="M1803.54,496.27c-29.06,0-58.12,0-87.18,0q-4.83,0-4.31,4.99c2.62,25.08,15.41,40.04,40.78,47.62,17.56,5.24,35.6,5.93,53.74,5.51,24.22-.56,48.27-2.89,72.09-7.43,2.24-.43,2.7,.16,2.69,2.33-.09,16.7-.15,33.41,.04,50.11,.04,3.27-2.07,3.02-3.89,3.37-18.23,3.57-36.66,5.5-55.2,6.36-17.27,.8-34.55,1.24-51.81-.09-23.49-1.81-46.26-6.52-67.28-17.69-29.1-15.47-46.6-39.94-55.03-71.33-5.73-21.33-6.91-43.09-5.8-65.05,.87-17.21,3.47-34.1,9.39-50.34,12.18-33.41,35.47-55.14,69.78-64.54,32.54-8.91,65.38-9.13,98-.59,39.16,10.25,62.9,36.01,72.75,74.87,5.72,22.55,6.45,45.48,4.47,68.56-.28,3.21-.76,6.41-.89,9.62-.11,2.81-.99,3.83-4.11,3.82-29.4-.15-58.81-.09-88.21-.09Zm-33.08-48.6c18.68,0,37.36-.04,56.04,.05,2.43,.01,3.11-.67,3.07-3.08-.08-5.55-.49-11.04-1.59-16.47-3.98-19.54-15.31-32.36-34.86-37.24-13.03-3.25-26.22-3.43-39.38-.51-17.84,3.96-29.81,14.71-36.38,31.62-2.81,7.23-4.21,14.78-5.23,22.45-.38,2.85,.45,3.24,2.97,3.23,18.45-.09,36.9-.05,55.35-.05Z"/><path class="cls-1" d="M198.15,373.7c4.05-3.65,7.61-7.05,11.37-10.22,23.39-19.77,50.24-30.31,81.09-29.9,16.94,.23,33.54,2.43,49.11,9.59,22.46,10.33,35.7,28.3,42.22,51.67,3.52,12.61,4.94,25.51,4.95,38.57,.03,57.6-.01,115.19,.09,172.79,0,3.1-.8,3.75-3.79,3.73-20.75-.14-41.51-.14-62.26,0-3.09,.02-4-.69-3.99-3.92,.11-56.44,.07-112.89,.09-169.33,0-5.66-.34-11.28-1.68-16.79-4.23-17.33-16.34-27.43-34.47-29.32-26.71-2.78-49.38,6.72-70.31,22.22-3.92,2.9-5.31,5.95-5.29,10.82,.18,60.82,.1,121.64,.18,182.47,0,2.9-.48,3.89-3.7,3.87-20.98-.17-41.97-.15-62.95-.02-2.8,.02-3.36-.82-3.35-3.45,.07-89.85,.07-179.7,0-269.55,0-2.74,.73-3.44,3.44-3.42,15.8,.13,31.59,.13,47.39,0,2.6-.02,3.53,.8,4.03,3.25,2.49,12.16,5.15,24.29,7.86,36.95Z"/><path class="cls-1" d="M560.82,525.45c12.35-34.14,24.62-68.06,36.88-101.98,10.43-28.84,20.88-57.68,31.19-86.57,.94-2.63,2.12-3.42,4.89-3.4,22.25,.13,44.51,.12,66.77,.02,2.97-.01,3.47,.55,2.32,3.38-36.67,89.89-73.28,179.8-109.81,269.75-1.05,2.59-2.34,3.3-5.03,3.29-19.72-.12-39.44-.14-59.16,.01-2.93,.02-4.12-.95-5.13-3.61-32.65-85.66-65.4-171.29-98.12-256.92-1.72-4.51-3.32-9.06-5.17-13.52-.84-2.03-.19-2.35,1.67-2.35,23.06,.03,46.13,.06,69.19-.04,2.24,0,2.65,1.26,3.19,2.82,9.53,27.46,19.07,54.91,28.61,82.37,12.02,34.62,24.04,69.24,36.11,103.84,.32,.91,.33,2.06,1.63,2.91Z"/><path class="cls-2" d="M1444.84,300.53c-3.52,6.47-6.48,12.16-9.66,17.72-14.09,24.67-29.7,48.25-49.87,68.5-4.97,4.99-10.28,9.6-16.07,13.6-1.65,1.14-2.17,2.38-2.17,4.27,.07,35.82,.07,71.65,.15,107.47,.01,4.61,.59,9.2,1.59,13.7,3.4,15.36,12.21,23.69,28.04,26.57,9.44,1.72,19,2.04,28.56,2.03,2.54,0,3.57,.41,3.54,3.32-.16,16.24-.14,32.49,0,48.73,.02,2.81-.78,3.44-3.49,3.27-15.58-.97-31.07,1.05-46.6,1.68-14.95,.61-29.81,.18-43.61-6.51-21.44-10.39-32-28.5-35.86-51.28-2.81-16.6-1.56-33.3-1.34-49.96,.34-25.45,.74-50.89,.54-76.34-.16-19.69-.36-39.38-.69-59.07-.91-53.56-.46-107.12-.57-160.68,0-1.22,0-2.45,0-4.41,5.08,5.53,8.9,11.09,12.58,16.71,14.9,22.76,27.92,46.58,39.26,71.3,4.71,10.27,6.36,21.33,8.35,32.3,.92,5.05,.86,5.03,5.79,3.43,26.15-8.51,52.3-17,78.46-25.5,.64-.21,1.29-.36,3.09-.85Z"/><path class="cls-1" d="M1539.03,368.54c6.99-6.52,14.03-12.42,21.73-17.5,15.69-10.34,32.72-16.62,51.65-17.43,2.43-.1,3.4,.29,3.37,3.07-.14,16.81-.08,33.63-.06,50.45,0,1.69,.17,2.92-2.38,2.99-23.81,.63-43.67,10.43-61.17,26.08-4.61,4.12-6.31,8.34-6.28,14.52,.24,58.16,.15,116.33,.14,174.49q0,4.66-4.82,4.66c-20.41,0-40.81-.05-61.22,.06-2.83,.02-3.9-.39-3.9-3.65,.11-89.61,.1-179.21,.03-268.82,0-2.86,.46-3.96,3.69-3.92,15.79,.19,31.59,.15,47.38,.02,2.48-.02,3.37,.81,3.91,3.09,2.23,9.51,4.62,18.98,6.97,28.46,.26,1.06,.58,2.11,.94,3.45Z"/></svg>