<?xml version="1.0" encoding="UTF-8"?><svg id="Layer_1" xmlns="http://www.w3.org/2000/svg" viewBox="0 0 2192 683.02"><defs><style>.cls-1{fill:#4b2489;}</style></defs><path class="cls-1" d="M1162.83,683.02c-9.59-2.71-19.51-3.83-29.22-6-14.07-3.14-27.92-6.95-41.02-13.1-22.14-10.39-37.01-28.04-48.8-48.77-16.28-28.65-29.06-58.98-42.8-88.84-60.65-131.75-121.17-263.56-181.64-395.39-1.52-3.31-3.17-4.54-6.92-4.51-22.41,.21-44.83,.02-67.24,.19-3.64,.03-4.47-1.08-4.46-4.57,.13-32.8,.12-65.61,0-98.41-.01-3.41,.68-4.6,4.4-4.6,93.37,.11,186.74,.11,280.11,0,3.55,0,4.15,1.16,4.13,4.35-.1,32.95-.12,65.89,.02,98.84,.02,3.65-1.09,4.42-4.56,4.39-19.7-.17-39.4-.08-59.1-.08-1.55,0-3.1,0-5.25,0,54.43,121.96,108.63,243.4,163.16,365.58,8.26-19.09,16.14-37.35,24.05-55.59,44-101.6,88.01-203.2,132.02-304.81,.4-.91,.8-1.82,1.21-2.73,.87-1.93,.08-2.58-1.84-2.46-.99,.07-2,0-3,0-25.13,0-50.25-.06-75.38,.07-3.37,.02-4.32-.87-4.31-4.28,.13-32.95,.14-65.89,0-98.84-.02-3.63,1.06-4.44,4.55-4.44,76.81,.1,153.62,.1,230.42,0,3.46,0,4.62,.75,4.58,4.42-.2,17.54-.14,35.08-.04,52.63,.02,2.85-.95,5.25-2.06,7.73-57.93,129.07-115.84,258.15-173.76,387.22-31.12,69.34-62.24,138.68-93.35,208.03-.57,1.27-1.54,2.43-1.34,3.97h-2.57Z"/><path class="cls-1" d="M352.38,674.38c-95.64-.44-179.54-31.7-249.57-97.17-48.91-45.72-79.85-102.26-94.66-167.52-9.19-40.49-10.67-81.41-4.13-122.35,12.92-80.9,50.17-148.66,112.5-202.1C162.76,45.6,216.1,19.98,275.74,7.47,309.78,.33,344.18-1.17,378.79,.79c58.91,3.35,113.79,20.15,164.1,50.86,83.91,51.23,137.54,124.89,155.9,221.43,21.09,110.93-7.97,209.16-84.8,292.06-50.99,55.02-114.97,87.81-188.37,102.53-24.15,4.84-48.58,6.71-73.23,6.7Zm-2.61-564.52c-3.3,.15-9.72,.35-16.13,.79-4.12,.29-8.23,.83-12.32,1.44-62.74,9.38-112.94,39.67-149.77,91.21-32.09,44.89-43.68,95.49-39.53,150.11,3.91,51.45,22.89,96.65,58.23,134.12,51.17,54.25,114.55,77.6,188.83,69.7,47.92-5.09,89.89-24.52,124.66-57.69,62.46-59.58,82.8-133.37,65.45-216.38-21.53-103.01-111.04-173.17-219.42-173.31Z"/><path class="cls-1" d="M1829.41,674.26c-85.84-1.36-170.37-32.99-240.85-98.52-44.85-41.7-75-93.31-89.73-152.75-28.88-116.53-3.18-220.49,76.5-310.34,32.34-36.47,72.92-62.2,117.47-81.65,33.66-14.69,68.8-24.42,105.34-27.92,114.35-10.96,214.67,21.41,297.66,101.25,50.33,48.42,80.74,108.77,91.5,177.82,17.7,113.58-14.52,211.94-95.99,292.92-40.99,40.74-91.12,67.54-146.62,83.94-34.69,10.25-69.96,15.25-115.27,15.26Zm-210.19-338.18c-.37,15.46,1.42,33.59,5.62,51.43,26.52,112.72,133.26,185.56,248.27,168.93,57.77-8.36,104.86-36.1,141.28-81.55,28.33-35.36,43.88-75.9,47.27-121.08,2.64-35.12-.93-69.38-13.65-102.49-37.83-98.51-140.03-157.96-248.77-137.47-106.55,20.08-181.84,112.36-180.03,222.24Z"/></svg>