<?xml version="1.0" encoding="UTF-8"?><svg id="Layer_1" xmlns="http://www.w3.org/2000/svg" viewBox="0 0 2192 1223.94"><defs><style>.cls-1{fill:#27b6c1;}</style></defs><path class="cls-1" d="M67.26,73.09c7.47,4.97,12.45,12.43,14.95,19.88,4.98,7.46,4.98,17.4,4.98,29.83V391.25c0,12.43-2.49,24.86-4.98,32.31-2.49,7.46-7.47,14.91-14.95,19.88-7.47,4.97-14.95,7.46-22.42,7.46s-24.91,2.49-37.36,2.49c-2.49,0-4.98,0-4.98,2.49Q0,458.36,0,460.84v22.37c0,2.49,0,4.97,2.49,4.97q2.49,2.49,4.98,2.49h249.09c4.98,0,7.47-2.49,7.47-7.46v-22.37c0-4.97-2.49-7.46-7.47-7.46h-17.44c-9.96,0-17.44,0-27.4-2.49-7.47,0-14.95-4.97-22.42-7.46-7.47-4.97-12.45-9.94-14.95-17.4-4.98-7.46-4.98-17.4-4.98-29.83v-136.71c0-9.94,0-22.37,2.49-37.28,0-12.43,2.49-24.86,4.98-39.77,2.49-12.43,4.98-27.34,9.96-39.77,4.98-12.43,9.96-24.86,14.95-34.8,4.98-9.94,12.45-17.4,22.42-24.86,7.47-4.97,17.44-9.94,27.4-9.94,17.44,0,27.4,4.97,34.87,14.91,4.98,9.94,9.96,24.86,9.96,44.74,0,4.97,2.49,7.46,7.47,7.46,9.96,0,19.93-2.49,29.89-4.97,9.96-2.49,17.44-7.46,24.91-12.43,7.47-4.97,9.96-12.43,14.94-19.88,2.49-7.46,4.98-17.4,4.98-24.86,0-19.88-7.47-34.8-22.42-47.23-14.94-9.94-37.36-17.4-69.74-17.4-19.93,0-34.87,2.49-47.33,7.46-12.45,9.94-22.42,17.4-32.38,24.86-9.96,9.94-14.95,19.88-22.42,29.83-2.49,7.46-7.47,14.91-12.45,24.86,0,2.49-2.49,2.49-4.98,2.49q-2.49-2.49-2.49-4.97V63.15c0-19.88-17.44-37.28-37.36-37.28H7.48C2.5,28.35,0,30.84,0,33.32,0,48.23,12.46,63.15,27.4,63.15h14.95c9.96,2.49,17.44,7.46,24.91,9.94h0Z"/><path class="cls-1" d="M1103.48,222.23c-64.76,2.49-114.58,14.91-146.96,37.28-32.38,22.37-49.82,57.17-49.82,101.91,0,22.37,2.49,44.74,9.96,62.14,4.98,17.4,14.94,29.83,27.4,42.26,12.45,12.43,27.4,19.88,42.35,24.86,17.44,4.97,34.87,7.46,52.31,7.46s32.38-2.49,44.83-4.97c12.45-4.97,24.91-9.94,34.87-17.4,9.97-7.46,19.93-17.4,27.4-27.34,7.47-9.94,29.89-32.31,29.89-32.31v37.28c0,19.88,14.94,34.8,34.87,34.8h89.67c4.98,0,7.47-2.49,7.47-7.46v-22.37c0-2.49-2.49-7.46-7.47-7.46-7.47,0-14.94,0-19.93-2.49-7.47-2.49-12.45-4.97-17.44-9.94-4.98-4.97-7.47-12.43-9.97-19.88-2.49-9.94-2.49-19.88-2.49-29.83V165.06c0-27.34-2.49-49.71-9.97-69.6-4.98-17.4-14.94-32.31-29.89-47.23-12.45-12.43-29.89-19.88-49.82-24.86-19.93-4.97-42.35-7.46-69.74-7.46-19.93,0-39.85,2.49-59.78,4.97-17.44,2.49-32.38,7.46-49.82,14.91-12.45,4.97-24.91,14.91-32.38,24.86-2.49,12.43-4.98,24.86-4.98,39.77,0,19.88,4.98,34.8,17.44,42.26,9.97,7.46,27.4,12.43,47.33,12.43,2.49,0,4.98,0,4.98-2.49q2.49-2.49,2.49-4.97c0-9.94,0-19.88,2.49-29.83,2.49-9.94,4.98-19.88,12.45-29.83,4.98-7.46,14.95-14.91,24.91-19.88,9.96-4.97,22.42-7.46,39.85-7.46s32.38,2.49,42.35,7.46c9.96,4.97,17.44,12.43,24.91,22.37,2.49,12.43,7.47,22.37,7.47,34.8,2.49,14.91,2.49,27.34,2.49,42.26v44.74c0,4.97-2.49,7.46-7.47,7.46,0,0-62.27,2.49-62.27,2.49Zm69.74,101.91c0,17.4-2.49,34.8-7.47,49.71-4.98,14.91-12.45,27.34-22.42,37.28s-22.42,19.88-37.36,24.86c-14.94,4.97-29.89,7.46-47.32,7.46-22.42,0-42.35-7.46-52.31-19.88-12.45-12.43-17.44-32.31-17.44-59.65,0-14.91,2.49-29.83,7.47-44.74,4.98-12.43,12.45-24.86,22.42-32.31,9.97-9.94,22.42-14.91,39.86-19.88,17.44-4.97,37.36-7.46,59.78-9.94l47.33-2.49c2.49,0,4.98,0,4.98,2.49q2.49,2.49,2.49,4.97v62.14Z"/><path class="cls-1" d="M401.06,33.37c0,14.91,12.45,29.83,27.4,29.83h2.49c7.47,0,14.95,4.97,22.42,7.46,7.47,4.97,12.45,9.94,14.94,17.4,2.49,12.43,4.98,22.37,4.98,34.8v206.3c0,29.83,2.49,54.68,9.96,77.05,7.47,22.37,14.95,39.77,27.4,52.2,12.45,14.91,27.4,24.86,44.83,29.83,19.93,7.46,39.85,9.94,59.78,9.94,12.45,0,27.4,0,39.85-2.49,27.4-4.97,52.31-17.4,69.74-34.8,7.47-7.46,19.93-22.37,27.4-32.31,0,0,2.49-2.49,4.98,0l2.49,2.49c0,32.31,27.4,59.65,59.78,59.65h82.2c4.98,0,7.47-2.49,7.47-7.46v-22.37c0-2.49-2.49-7.46-7.47-7.46-7.47,0-17.44,0-22.42-2.49-7.47,0-14.95-2.49-22.42-7.46-7.47-4.97-12.45-9.94-14.94-17.4-4.98-7.46-4.98-17.4-4.98-29.83V35.85c0-4.97-2.49-7.46-7.47-7.46h-139.49c-4.98,0-7.47,2.49-7.47,7.46,0,14.91,12.45,29.83,27.4,29.83h2.49c7.47,0,14.95,4.97,22.42,7.46,7.47,4.97,12.45,12.43,14.95,19.88,4.98,7.46,4.98,19.88,4.98,32.31v178.96c0,19.88-2.49,37.28-7.47,57.17-2.49,14.91-9.96,29.83-19.93,44.74-9.97,12.43-19.93,22.37-32.38,27.34-12.45,7.46-29.89,9.94-49.82,9.94-17.44,0-32.38-2.49-42.35-7.46-9.96-4.97-19.93-12.43-27.4-22.37-7.47-12.43-12.45-24.86-14.95-37.28-2.49-17.4-4.98-32.31-4.98-49.71V35.85c0-2.49,0-4.97-2.49-4.97q-2.49-2.49-4.98-2.49h-139.49c-4.98,0-7.47,2.49-7.47,4.97Z"/><path class="cls-1" d="M1793.46,495.66c-9.97,9.94-17.44,19.88-24.91,32.31-4.98,12.43-9.96,27.34-9.96,44.74,0,39.77,14.94,69.6,44.83,91.97,29.89,22.37,74.73,32.31,134.51,32.31,39.85,0,72.24-4.97,102.12-12.43,29.89-7.46,52.31-17.4,72.24-32.31,17.44-12.43,32.38-29.83,42.35-49.71,9.96-22.37,14.94-44.74,12.45-67.11,0-17.4-2.49-34.8-7.47-52.2-4.98-14.91-12.45-29.83-24.91-42.26-12.45-12.43-27.4-19.88-44.83-27.34-17.44-7.46-39.85-9.94-64.76-9.94h-119.56c-4.98,0-12.45-2.49-17.44-4.97-4.98-2.49-7.47-4.97-9.97-9.94-2.49-4.97-4.98-9.94-4.98-17.4,0-4.97,0-12.43,2.49-17.4,2.49-4.97,4.98-9.94,9.96-14.91,4.98-4.97,7.47-7.46,12.45-12.43,4.98-2.49,7.47-4.97,12.45-7.46,2.49,0,4.98-2.49,7.47,0h42.35c24.91,0,49.82-2.49,67.26-9.94,17.44-7.46,34.87-17.4,47.33-32.31,12.45-12.43,22.42-29.83,29.89-47.23,7.47-19.88,9.97-39.77,9.97-59.65,0-24.86-2.49-44.74-9.97-62.14-4.98-12.43-12.45-24.86-19.93-37.28,0-2.49-2.49-4.97,0-4.97,0-2.49,2.49-2.49,4.98-4.97,2.49-2.49,7.47-2.49,9.96-4.97,7.47-2.49,12.45-2.49,19.93-2.49,4.98,0,9.96,0,14.94,2.49,2.49,2.49,7.47,4.97,7.47,7.46,2.49,2.49,2.49,4.97,4.98,9.94v4.97c0,2.49,4.98,7.46,7.47,4.97,4.98,0,9.96-2.49,12.45-2.49,4.98-2.49,9.96-4.97,14.94-9.94,2.49-4.97,7.47-9.94,7.47-14.91,2.49,2.49,2.49-4.97,2.49-9.94s0-12.43-2.49-17.4c-2.49-4.97-4.98-9.94-9.96-14.91-4.98-4.97-9.97-7.46-14.95-9.94-7.47-2.49-14.94-4.97-22.42-2.49-9.96,0-17.44,2.49-27.4,4.97-7.47,2.49-14.95,7.46-22.42,12.43-7.47,4.97-12.45,9.94-19.93,14.91-4.98,2.49-7.47,7.46-9.96,9.94-2.49,2.49-4.98,2.49-9.97,0-4.98-2.49-7.47-4.97-12.45-7.46-7.47-2.49-14.94-7.46-22.42-9.94-9.96-2.49-17.44-4.97-27.4-7.46-9.96-2.49-19.93-2.49-29.89-2.49-27.4,0-49.82,2.49-72.23,9.94-19.93,7.46-37.36,17.4-49.82,32.31-14.94,14.91-24.91,32.31-29.89,49.71-7.47,19.88-9.96,42.26-9.96,67.11,0,14.91,2.49,27.34,4.98,42.26,2.49,12.43,7.47,24.86,14.94,37.28,7.47,12.43,14.95,22.37,24.91,29.83,7.47,4.97,12.45,9.94,19.93,14.91,2.49,2.49,4.98,4.97,4.98,7.46s0,4.97-2.49,7.46c-12.45,9.94-24.91,19.88-29.89,29.83-9.96,12.43-12.45,27.34-12.45,44.74,0,7.46,2.49,17.4,4.98,24.86,2.49,7.46,7.47,14.91,9.96,19.88l14.94,14.91c2.49,2.49,4.98,4.97,7.47,4.97s2.49,2.49,2.49,2.49c0,2.49-2.49,2.49-2.49,2.49-9.96,2.49-22.42,4.97-32.38,9.94-14.95,12.43-24.91,19.88-34.87,27.34Zm104.62-405.15c12.45-19.88,32.38-27.34,59.78-27.34s47.32,9.94,59.78,27.34,17.44,47.23,17.44,87c0,17.4,0,32.31-4.98,49.71-2.49,12.43-7.47,22.37-12.45,34.8-4.98,7.46-14.94,14.91-24.91,19.88-9.97,4.97-22.42,7.46-34.87,7.46-27.4,0-47.33-7.46-59.78-24.86-12.45-17.4-17.44-44.74-17.44-82.02,0-44.74,4.98-74.57,17.44-91.97Zm-59.78,434.98c4.98-9.94,12.45-17.4,19.93-24.86,9.96-4.97,19.93-9.94,29.89-12.43,12.45-2.49,22.42-2.49,34.87-2.49h84.69c12.45,0,24.91,0,37.36,2.49,9.96,2.49,19.93,4.97,27.4,9.94,7.47,4.97,12.45,12.43,17.44,19.88,4.98,7.46,4.98,19.88,4.98,32.31,0,14.91-2.49,27.34-7.47,42.26-4.98,12.43-12.45,24.86-24.91,32.31-12.45,9.94-27.4,17.4-47.33,22.37-19.93,4.97-44.84,7.46-77.22,7.46-22.42,0-39.85-2.49-54.8-7.46-14.94-4.97-24.91-9.94-34.87-17.4-7.47-7.46-14.94-17.4-17.44-27.34-2.49-12.43-4.98-22.37-4.98-34.8,2.49-17.4,7.47-32.31,12.45-42.26Z"/><path class="cls-1" d="M1701.29,110.39c-7.47-19.88-17.44-37.28-29.89-52.2-12.45-12.43-27.4-24.86-44.84-29.83-19.93-7.46-39.85-9.94-59.78-9.94-12.45,0-27.4,0-39.86,2.49-12.45,2.49-24.91,4.97-34.87,12.43-12.45,7.46-22.42,14.91-32.38,24.86-4.98,7.46-17.44,19.88-24.91,29.83,0,2.49-2.49,2.49-4.98,2.49s-2.49-2.49-2.49-4.97v-19.88c0-22.37-17.44-39.77-39.85-39.77h-104.62c-4.98,0-7.47,2.49-7.47,7.46,0,14.91,12.45,29.83,27.4,29.83h2.49c7.47,2.49,14.95,4.97,22.42,7.46,7.47,4.97,12.45,9.94,14.94,17.4,4.98,7.46,4.98,17.4,4.98,29.83V478.26c0,4.97,2.49,7.46,7.47,7.46h139.49c4.98,0,7.47-2.49,7.47-7.46v-22.37c0-2.49-2.49-7.46-7.47-7.46-7.47,0-17.44,0-22.42-2.49-7.47,0-14.95-2.49-22.42-7.46-7.47-4.97-12.45-9.94-14.95-17.4-4.98-7.46-4.98-17.4-4.98-29.83V214.78c0-17.4,2.49-34.8,4.98-52.2,2.49-14.91,9.96-29.83,17.44-44.74,7.47-12.43,19.93-22.37,32.38-29.83,12.45-7.46,29.89-12.43,49.82-12.43,17.44,0,32.38,2.49,44.83,7.46,12.45,4.97,22.42,12.43,29.89,22.37,7.47,9.94,12.45,24.86,14.95,37.28,2.49,17.4,4.98,32.31,4.98,49.71V483.23c0,4.97,2.49,7.46,7.47,7.46h137c4.98,0,7.47-2.49,7.47-7.46v-22.37c0-2.49-2.49-7.46-7.47-7.46-7.47,0-17.44,0-22.42-2.49-7.47,0-14.94-4.97-19.93-7.46-4.98-4.97-9.96-12.43-12.45-19.88-2.49-7.46-4.98-19.88-4.98-32.31V187.44c-2.49-29.83-7.47-54.68-12.45-77.05Z"/><path class="cls-1" d="M398.54,1012.66c-4.98-14.91-12.45-29.83-24.91-39.77-12.45-12.43-27.4-22.37-44.83-27.34-17.44-7.46-39.85-9.94-64.76-9.94h-117.07c-4.98,0-12.45-2.49-17.44-4.97-4.98-2.49-7.47-4.97-9.96-9.94s-4.98-9.94-4.98-17.4c0-4.97,0-12.43,2.49-17.4,2.49-4.97,4.98-9.94,9.96-14.91,4.98-4.97,7.47-7.46,12.45-12.43,4.98-2.49,9.96-7.46,14.95-9.94h47.33c24.91,0,49.82-2.49,67.25-9.94s34.87-17.4,47.33-29.83c12.45-12.43,22.42-29.83,29.89-47.23,7.47-19.88,9.96-39.77,9.96-59.65,0-24.86-2.49-44.74-9.96-62.14-7.47-17.4-17.44-34.8-29.89-49.71-2.49-2.49-4.98-4.97-7.47-7.46-2.49-2.49-2.49-4.97,0-7.46,2.49-2.49,4.98-7.46,7.47-9.94,4.98-4.97,9.96-9.94,14.95-12.43,4.98-2.49,9.97-4.97,12.45-4.97,4.98,0,7.47,0,9.96,2.49,2.49,2.49,4.98,2.49,7.47,4.97l2.49,2.49c2.49,2.49,7.47,2.49,9.96,2.49,4.98-2.49,7.47-4.97,9.96-9.94,2.49-4.97,4.98-9.94,7.47-14.91v-17.4c0-4.97-2.49-12.43-7.47-17.4-2.49-4.97-7.47-9.94-9.96-12.43-4.98-2.49-9.96-7.46-14.94-7.46-4.98-2.49-12.45-2.49-17.44,0-7.47,2.49-14.95,4.97-19.93,7.46-7.47,4.97-14.95,9.94-19.93,17.4-4.98,7.46-9.96,14.91-14.95,22.37-2.49,7.46-7.47,14.91-9.96,22.37v2.49c0,2.49-2.49,2.49-2.49,4.97h-4.98c-2.49,0-4.98-2.49-9.96-2.49-9.96-2.49-17.44-4.97-27.4-7.46s-19.93-2.49-29.89-2.49c-27.4,0-49.82,2.49-69.74,9.94-19.93,7.46-37.36,17.4-49.82,32.31-12.45,14.91-24.91,32.31-29.89,49.71-7.47,19.88-9.96,42.26-9.96,67.11,0,14.91,2.49,27.34,4.98,42.26,2.49,12.43,7.47,24.86,14.95,37.28,7.47,12.43,14.95,22.37,24.91,29.83,9.96,9.94,19.93,14.91,32.38,19.88-19.93,12.43-34.87,24.86-42.35,37.28-17.44,22.37-19.93,49.71-12.45,72.08,2.49,7.46,7.47,14.91,9.96,19.88,4.98,4.97,9.96,9.94,14.95,14.91,4.98,4.97,9.96,7.46,17.44,9.94-14.95,2.49-27.4,7.46-39.85,12.43-12.45,4.97-24.91,12.43-34.87,22.37-9.96,9.94-17.44,19.88-22.42,32.31-7.47,14.91-9.96,29.83-9.96,44.74,0,39.77,14.95,69.6,44.83,91.97,29.89,22.37,74.73,32.31,134.51,32.31,39.85,0,72.24-4.97,102.12-12.43,27.4-7.46,52.31-17.4,72.23-32.31,17.44-12.43,32.38-29.83,42.35-49.71,9.96-19.88,14.95-44.74,12.45-67.11-2.49-14.91-4.98-32.31-9.96-49.71h0ZM137,617.46c12.45-19.88,32.38-27.34,59.78-27.34s47.33,9.94,59.78,27.34c12.45,17.4,17.44,47.23,17.44,87,0,17.4,0,32.31-4.98,49.71-2.49,12.43-7.47,22.37-12.45,32.31-4.98,7.46-14.95,14.91-22.42,19.88-9.96,4.97-22.42,7.46-34.87,7.46-27.4,0-47.33-7.46-59.78-24.86-14.95-19.88-19.93-47.23-19.93-84.51,0-39.77,4.98-67.11,17.44-87h0Zm191.8,502.09c-4.98,12.43-12.45,24.86-24.91,32.31-12.45,9.94-27.4,17.4-47.33,22.37-19.93,4.97-44.83,7.46-77.22,7.46-22.42,0-39.85-2.49-54.8-7.46-14.95-4.97-24.91-9.94-34.87-17.4-7.47-7.46-14.95-17.4-17.44-27.34-2.49-12.43-4.98-22.37-4.98-34.8,0-17.4,2.49-32.31,7.47-42.26,4.98-9.94,12.45-17.4,22.42-24.86,9.96-4.97,19.93-9.94,29.89-12.43,12.45-2.49,22.42-2.49,34.87-2.49h87.18c12.45,0,24.91,0,37.36,2.49,9.96,2.49,19.93,4.97,27.4,9.94,7.47,4.97,12.45,12.43,17.44,19.88,4.98,7.46,4.98,19.88,4.98,32.31,0,14.91-2.49,29.83-7.47,42.26h0Z"/><path class="cls-1" d="M401.06,562.77c0,14.91,12.45,29.83,27.4,29.83h2.49c7.47,0,14.95,4.97,22.42,7.46,7.47,4.97,12.45,9.94,14.94,17.4,4.98,7.46,4.98,17.4,4.98,29.83v206.3c0,29.83,2.49,54.68,9.96,77.05,7.47,22.37,14.95,39.77,27.4,52.2,12.45,14.91,27.4,24.86,44.83,29.83,19.93,7.46,39.85,9.94,59.78,9.94,12.45,0,27.4,0,39.85-2.49,27.4-4.97,52.31-17.4,69.74-34.8,7.47-7.46,19.93-22.37,27.4-32.31,0,0,2.49-2.49,4.98,0l2.49,2.49c0,14.91,4.98,32.31,17.44,42.26,9.96,12.43,27.4,17.4,42.35,17.4h82.2c4.98,0,7.47-2.49,7.47-7.46v-22.37c0-2.49-2.49-7.46-7.47-7.46-7.47,0-17.44,0-22.42-2.49-7.47,0-14.95-2.49-22.42-7.46-7.47-4.97-12.45-9.94-14.94-17.4-4.98-7.46-4.98-17.4-4.98-29.83v-357.93c0-2.49,0-4.97-2.49-4.97q-2.49-2.49-4.98-2.49h-139.49c-2.49,0-4.98,0-4.98,2.49q-2.49,2.49-2.49,4.97c0,14.91,12.45,29.83,27.4,29.83h2.49c7.47,0,14.95,4.97,22.42,7.46,7.47,4.97,12.45,12.43,14.95,19.88,4.98,7.46,4.98,19.88,4.98,32.31v178.96c0,19.88-2.49,37.28-7.47,57.17-2.49,14.91-9.96,29.83-19.93,44.74-9.97,12.43-19.93,22.37-32.38,27.34-12.45,7.46-29.89,9.94-49.82,9.94-17.44,0-32.38-2.49-42.35-7.46-9.96-4.97-19.93-12.43-27.4-22.37-7.47-12.43-12.45-24.86-14.95-37.28-2.49-17.4-4.98-32.31-4.98-49.71v-290.81c0-4.97-2.49-7.46-7.47-7.46h-139.49c-4.98,0-7.47,2.49-7.47,7.46Z"/><path class="cls-1" d="M1230.51,562.74c-14.94-9.94-37.36-17.4-69.74-17.4-19.93,0-34.87,2.49-47.33,7.46-12.45,4.97-22.42,12.43-32.38,19.88-7.47,9.94-14.95,19.88-22.42,29.83-2.49,4.97-7.47,14.91-12.45,22.37,0,2.49-2.49,2.49-4.98,2.49s-2.49-2.49-2.49-4.97v-32.31c0-19.88-17.44-37.28-37.36-37.28h-119.56c-4.98,0-7.47,2.49-7.47,7.46,0,14.91,12.45,29.83,27.4,29.83h14.95c7.47,0,14.94,4.97,22.42,7.46,7.47,4.97,12.45,9.94,14.94,17.4,4.98,7.46,4.98,17.4,4.98,29.83v360.41c0,4.97,2.49,7.46,7.47,7.46h159.42c4.98,0,7.47-2.49,7.47-7.46v-22.37c0-4.97-2.49-7.46-7.47-7.46h-17.44c-9.96,0-17.44,0-27.4-2.49-7.47,0-14.95-4.97-22.42-7.46-7.47-4.97-12.45-9.94-14.94-17.4-4.98-7.46-4.98-17.4-4.98-29.83v-136.71c0-9.94,0-22.37,2.49-37.28,0-12.43,2.49-27.34,4.98-39.77,2.49-12.43,4.98-27.34,9.96-39.77,4.98-12.43,9.96-22.37,14.94-34.8,4.98-9.94,12.45-17.4,22.42-24.86,7.47-4.97,17.44-9.94,27.4-9.94,17.44,0,27.4,4.97,34.87,14.91,4.98,9.94,9.96,24.86,9.96,44.74,0,4.97,2.49,7.46,7.47,7.46,9.96,0,19.93-2.49,29.89-4.97,9.96-2.49,17.44-7.46,24.91-12.43,7.47-4.97,9.97-12.43,14.95-19.88,2.49-7.46,4.98-17.4,4.98-24.86,4.98-9.94-2.49-24.86-17.44-37.28Z"/><path class="cls-1" d="M1771.03,982.84c-7.47,0-14.95,0-17.44-2.49-7.47,0-14.95-2.49-22.42-7.46-7.47-4.97-12.45-9.94-14.94-17.4-4.98-7.46-4.98-17.4-4.98-29.83v-362.9c0-2.49,0-4.97-2.49-4.97q-2.49-2.49-4.98-2.49h-139.49c-4.98,0-7.47,2.49-7.47,7.46,0,14.91,12.45,29.83,27.4,29.83h2.49c7.47,0,14.95,4.97,22.42,7.46,7.47,4.97,12.45,12.43,14.95,19.88,4.98,7.46,4.98,19.88,4.98,32.31v178.96c0,19.88-2.49,37.28-7.47,57.17-2.49,14.91-9.96,29.83-19.93,44.74-9.97,12.43-19.93,22.37-32.38,27.34-12.45,7.46-29.89,9.94-49.82,9.94-17.44,0-32.38-2.49-42.35-7.46-9.96-4.97-19.93-12.43-27.4-22.37-7.47-12.43-12.45-24.86-14.95-37.28-2.49-17.4-4.98-32.31-4.98-49.71v-290.81c0-4.97-2.49-7.46-7.47-7.46h-139.49c-4.98,0-7.47,2.49-7.47,7.46,0,14.91,12.45,29.83,27.4,29.83h2.49c7.47,0,14.95,4.97,22.42,7.46,7.47,4.97,12.45,9.94,14.94,17.4,4.98,7.46,4.98,17.4,4.98,29.83v206.3c0,29.83,2.49,54.68,9.96,77.05,7.47,22.37,14.95,39.77,27.4,52.2,12.45,14.91,27.4,24.86,44.83,29.83,19.93,7.46,39.85,9.94,59.78,9.94,12.45,0,27.4,0,39.85-2.49,27.4-4.97,52.31-17.4,69.74-34.8,7.47-7.46,19.93-22.37,27.4-32.31,0,0,2.49-2.49,4.98,0l2.49,2.49c0,14.91,4.98,32.31,17.44,42.26,9.96,12.43,27.4,17.4,42.35,17.4h468.3c2.49,0,4.98-2.49,4.98-4.97v-24.86c0-2.49-2.49-4.97-4.98-4.97l-391.08,2.49h0Z"/></svg>