<?xml version="1.0" encoding="UTF-8" standalone="no"?>
<!-- Created with Inkscape (http://www.inkscape.org/) -->

<svg
   version="1.1"
   id="svg2"
   xml:space="preserve"
   width="609.93335"
   height="174.41333"
   viewBox="0 0 609.93335 174.41333"
   sodipodi:docname="groupm-logo.eps"
   xmlns:inkscape="http://www.inkscape.org/namespaces/inkscape"
   xmlns:sodipodi="http://sodipodi.sourceforge.net/DTD/sodipodi-0.dtd"
   xmlns="http://www.w3.org/2000/svg"
   xmlns:svg="http://www.w3.org/2000/svg"><defs
     id="defs6" /><sodipodi:namedview
     id="namedview4"
     pagecolor="#ffffff"
     bordercolor="#666666"
     borderopacity="1.0"
     inkscape:pageshadow="2"
     inkscape:pageopacity="0.0"
     inkscape:pagecheckerboard="0" /><g
     id="g8"
     inkscape:groupmode="layer"
     inkscape:label="ink_ext_XXXXXX"
     transform="matrix(1.3333333,0,0,-1.3333333,0,174.41333)"><g
       id="g10"
       transform="scale(0.1)"><path
         d="m 2362.96,684.477 c 0,-138.911 -47.09,-200.864 -152.75,-200.864 -105.63,0 -152.73,61.953 -152.73,200.864 V 1066.88 H 1916.76 V 669.895 c 0,-205.247 104.22,-318.254 293.45,-318.254 189.23,0 293.47,113.007 293.47,318.254 V 1066.88 H 2362.96 V 684.477"
         style="fill:#1d3054;fill-opacity:1;fill-rule:nonzero;stroke:none"
         id="path12" /><path
         d="m 2955.2,1087.3 c -94.57,0 -177.95,-45.29 -235.86,-127.784 V 1066.88 H 2578.63 V 67.6211 h 140.71 V 475.289 c 56.87,-78.75 140.19,-123.648 230.04,-123.648 100.36,0 185.35,39.043 245.71,112.91 55.22,67.597 85.65,160.191 85.65,260.754 0,95.175 -31.14,184.558 -87.67,251.683 -59.95,71.122 -144.43,110.312 -237.87,110.312 m 192.12,-366.37 c 0,-167.961 -108.96,-243.157 -216.92,-243.157 -138.56,0 -211.06,122.325 -211.06,243.157 0,157.726 106.19,240.242 211.06,240.242 127.73,0 216.92,-98.797 216.92,-240.242"
         style="fill:#1d3054;fill-opacity:1;fill-rule:nonzero;stroke:none"
         id="path14" /><path
         d="m 1216.25,1051.02 c -1.3,0.94 -2.3,1.67 -2.81,2.01 -34.74,22.1 -73.98,34.27 -110.47,34.27 -83.4,0 -150.681,-44.65 -186.271,-123.011 V 1066.88 H 775.984 V 374.961 h 140.715 v 340.148 c 0,110.481 17.531,237.317 154.191,237.317 21.52,0 39.63,-3.91 55.49,-11.981 l 89.87,110.575"
         style="fill:#1d3054;fill-opacity:1;fill-rule:nonzero;stroke:none"
         id="path16" /><path
         d="m 343.879,477.773 c -138.574,0 -211.066,122.325 -211.066,243.157 0,157.726 106.171,240.242 211.066,240.242 127.703,0 216.902,-98.797 216.902,-240.242 0,-167.961 -108.945,-243.157 -216.902,-243.157 M 561.395,1066.88 V 956.867 C 504.199,1041.08 420.82,1087.3 325.531,1087.3 232.102,1087.3 147.629,1048.11 87.6758,976.988 31.1523,909.863 0,820.48 0,725.305 0,624.742 30.4023,532.148 85.6406,464.551 146.023,390.699 230.973,351.641 331.371,351.641 c 89.863,0 173.164,44.922 230.024,123.672 V 372.188 c 0,-121.657 -22.661,-246.079 -190.657,-246.079 -122.988,0 -199.41,71.942 -199.41,187.739 v 4.746 H 30.5508 l 0.0781,-4.785 C 33.4531,126.109 167.789,0 364.91,0 663.777,0 702.125,218.359 702.125,408.633 v 658.247 h -140.73"
         style="fill:#1d3054;fill-opacity:1;fill-rule:nonzero;stroke:none"
         id="path18" /><path
         d="m 4541.66,783.273 c -66.95,-28.093 -130.88,-43.562 -179.91,-43.562 -39.59,0 -67.25,9.773 -82.24,29.07 -16.39,21.145 -18.74,55.149 -6.8,101.731 l 38.83,176.268 c 19.81,85.42 11.76,151.41 -23.84,196.22 -31.27,39.35 -81.49,59.29 -149.36,59.29 -71.84,0 -138.78,-25.61 -203.97,-78.11 -26.79,51.86 -78.42,78.11 -153.78,78.11 -62.27,0 -123.1,-22.09 -181.03,-65.7 -23.59,42.27 -85.1,71.46 -157.72,71.46 -35.14,0 -70.98,-6.52 -106.44,-19.45 l -9.88,-3.6 -27.62,-132.39 33.18,13.83 c 47.68,19.82 85.69,18.6 103.26,-3.5 12.56,-15.77 15.48,-41.9 8.29,-73.36 l -92.11,-380.279 h 154.81 l 61.37,264.91 c 34.78,131.049 89.7,192.109 172.8,192.109 21.96,0 39.93,-7.44 50.63,-20.94 13.29,-16.7 14.76,-49.58 4.25,-95.11 l -79.05,-340.969 h 154.58 l 72.63,313.449 c 20.04,84.52 85.53,143.57 159.26,143.57 22.89,0 40.76,-7.34 51.78,-21.18 13.27,-16.7 14.7,-49.47 4.17,-94.92 l -44.46,-193.685 c -16.96,-78.515 -6.37,-142.058 31.37,-188.836 38.39,-47.562 104.05,-73.734 184.94,-73.734 67.02,0 140.61,17.969 207.13,50.609 l 8.44,4.141 29.28,148.34 -32.79,-13.782"
         style="fill:#3b81cb;fill-opacity:1;fill-rule:nonzero;stroke:none"
         id="path20" /><path
         d="m 1601.37,484.82 c -26.71,-15.25 -58.54,-22.984 -94.6,-22.984 -36.1,0 -67.92,7.734 -94.59,22.984 -26.56,15.176 -48.71,35.395 -65.8,60.102 -16.99,24.527 -29.64,52.461 -37.61,83.008 -7.95,30.277 -11.98,61.789 -11.98,93.656 0,30.906 4.03,62.187 11.96,92.949 7.99,31.055 20.66,58.996 37.67,83.086 17.08,24.199 39.21,44.16 65.76,59.336 26.72,15.27 58.54,23.012 94.59,23.012 36.02,0 67.84,-7.735 94.6,-23.008 26.57,-15.199 48.69,-35.172 65.75,-59.348 16.96,-24.035 29.64,-51.996 37.67,-83.078 7.94,-30.949 11.97,-62.226 11.97,-92.949 0,-31.68 -4.04,-63.195 -11.98,-93.656 -8.01,-30.586 -20.68,-58.535 -37.63,-83.028 -17.06,-24.668 -39.2,-44.882 -65.78,-60.082 m 235.87,385.317 c -15.78,45.031 -39.04,84.261 -69.13,116.586 -30.1,32.347 -67.48,58.107 -111.11,76.547 -43.74,18.47 -94.29,27.82 -150.23,27.82 -55.96,0 -106.51,-9.35 -150.23,-27.82 -43.66,-18.45 -81.04,-44.2 -111.1,-76.54 -30.11,-32.312 -53.36,-71.546 -69.13,-116.593 -15.81,-45.192 -23.83,-95.172 -23.83,-148.551 0,-54.316 8.02,-104.75 23.83,-149.93 15.75,-45.039 39,-84.254 69.12,-116.582 30.08,-32.379 67.46,-58.125 111.11,-76.558 43.73,-18.457 94.27,-27.817 150.23,-27.817 55.94,0 106.49,9.36 150.23,27.817 43.6,18.418 80.99,44.16 111.13,76.558 30.08,32.328 53.34,71.567 69.11,116.582 15.81,45.215 23.82,95.672 23.82,149.93 0,53.309 -8.01,103.289 -23.82,148.551"
         style="fill:#1d3054;fill-opacity:1;fill-rule:nonzero;stroke:none"
         id="path22" /></g></g></svg>
