<?xml version="1.0" standalone="no"?>
<!DOCTYPE svg PUBLIC "-//W3C//DTD SVG 20010904//EN"
 "http://www.w3.org/TR/2001/REC-SVG-20010904/DTD/svg10.dtd">
<svg version="1.0" xmlns="http://www.w3.org/2000/svg"
 width="640.000000pt" height="180.000000pt" viewBox="0 0 640.000000 180.000000"
 preserveAspectRatio="xMidYMid meet">

<g transform="translate(0.000000,180.000000) scale(0.100000,-0.100000)"
fill="#000000" stroke="none">
<path d="M3172 806 c-80 -20 -142 -63 -171 -121 -21 -40 -26 -62 -25 -125 1
-78 16 -122 58 -168 43 -48 73 -56 227 -61 126 -5 150 -9 168 -25 31 -28 28
-86 -5 -117 -24 -22 -32 -24 -132 -23 -93 1 -158 11 -260 40 -23 7 -23 6 -20
-77 l3 -84 70 -19 c97 -26 339 -28 405 -3 118 46 165 111 164 232 0 117 -48
191 -144 225 -19 6 -97 14 -173 17 -132 6 -139 7 -157 31 -43 54 -6 115 78
128 85 13 226 -4 340 -40 22 -7 22 -6 22 77 l0 84 -42 12 c-125 33 -305 41
-406 17z"/>
<path d="M0 410 l0 -400 100 0 100 0 0 400 0 400 -100 0 -100 0 0 -400z"/>
<path d="M400 410 l0 -400 100 0 100 0 0 283 0 282 43 26 c60 38 112 52 168
47 59 -6 94 -34 109 -87 5 -20 10 -152 10 -293 l0 -258 101 0 100 0 -3 308
c-4 349 -6 362 -84 430 -53 48 -100 62 -197 62 -92 0 -165 -25 -225 -75 -22
-20 -43 -32 -45 -28 -3 5 -8 29 -12 56 l-7 47 -79 0 -79 0 0 -400z"/>
<path d="M1230 806 c0 -2 68 -181 150 -396 83 -216 150 -394 150 -396 0 -2 45
-4 99 -4 70 0 100 4 104 13 2 6 73 180 156 385 84 205 155 380 158 388 5 12
-11 14 -103 12 l-108 -3 -97 -268 c-53 -147 -99 -270 -101 -273 -3 -2 -48 118
-100 268 l-94 273 -107 3 c-59 1 -107 1 -107 -2z"/>
<path d="M2345 797 c-62 -21 -97 -42 -137 -84 -127 -131 -128 -442 -3 -581 85
-95 202 -128 420 -119 196 8 185 3 185 98 l0 79 -57 -7 c-32 -5 -112 -8 -178
-8 -106 0 -126 3 -168 24 -53 26 -87 70 -87 114 l0 27 264 0 264 0 6 23 c9 35
7 118 -5 182 -21 114 -80 194 -174 237 -42 18 -70 23 -170 25 -79 2 -134 -2
-160 -10z m259 -172 c26 -18 56 -81 56 -120 l0 -25 -170 0 c-170 0 -170 0
-170 23 1 36 36 104 65 123 53 35 165 34 219 -1z"/>
<path d="M4310 410 l0 -400 100 0 100 0 0 274 0 275 33 25 c44 34 116 66 150
66 l27 0 0 80 0 80 -29 0 c-43 0 -111 -27 -153 -60 -20 -17 -39 -30 -42 -30
-3 0 -11 20 -17 45 l-11 45 -79 0 -79 0 0 -400z"/>
<path d="M5025 797 c-62 -21 -97 -42 -137 -84 -129 -134 -124 -466 10 -596 45
-44 129 -83 208 -98 60 -11 318 -7 362 7 20 6 22 12 22 85 l0 79 -57 -7 c-32
-5 -112 -8 -178 -8 -105 0 -126 3 -167 23 -52 26 -77 57 -85 108 l-6 34 267 0
266 0 6 26 c10 41 -3 184 -22 242 -23 71 -88 143 -156 173 -44 19 -73 24 -173
26 -79 2 -134 -2 -160 -10z m259 -172 c30 -20 56 -73 56 -114 l0 -31 -170 0
c-170 0 -170 0 -170 23 1 36 36 104 65 123 53 35 165 34 219 -1z"/>
<path d="M5885 797 c-67 -23 -101 -44 -144 -93 -94 -107 -115 -338 -45 -494
45 -101 138 -166 270 -191 60 -11 318 -7 362 7 20 6 22 12 22 85 l0 79 -57 -7
c-32 -5 -112 -8 -178 -8 -105 0 -126 3 -167 23 -52 26 -77 57 -85 108 l-6 34
269 2 269 3 -1 105 c0 131 -19 191 -79 258 -68 75 -123 95 -270 99 -79 2 -134
-2 -160 -10z m257 -171 c32 -21 58 -73 58 -115 l0 -31 -170 0 c-163 0 -170 1
-170 20 0 37 32 100 63 122 54 39 163 41 219 4z"/>
</g>
</svg>
